<?xml version="1.0" encoding="UTF-8"?>
<svg xmlns="http://www.w3.org/2000/svg" xmlns:xlink="http://www.w3.org/1999/xlink" width="25px" height="18px" viewBox="0 0 24 18" version="1.1">
<g id="surface1">
<path style=" stroke:none;fill-rule:nonzero;fill:rgb(34.509804%,39.607843%,94.901961%);fill-opacity:1;" d="M 19.816406 1.507812 C 18.335938 0.792969 16.777344 0.285156 15.171875 0 C 14.949219 0.410156 14.753906 0.839844 14.574219 1.277344 C 12.867188 1.003906 11.125 1.003906 9.417969 1.277344 C 9.242188 0.839844 9.042969 0.410156 8.824219 0 C 7.21875 0.292969 5.65625 0.796875 4.175781 1.511719 C 1.234375 6.097656 0.4375 10.570312 0.832031 14.980469 C 2.554688 16.328125 4.484375 17.347656 6.53125 18 C 6.996094 17.347656 7.402344 16.648438 7.757812 15.925781 C 7.085938 15.660156 6.445312 15.339844 5.832031 14.957031 C 5.996094 14.835938 6.148438 14.707031 6.300781 14.585938 C 9.914062 16.371094 14.085938 16.371094 17.699219 14.585938 C 17.851562 14.714844 18.011719 14.839844 18.167969 14.957031 C 17.554688 15.339844 16.910156 15.664062 16.242188 15.925781 C 16.59375 16.652344 17 17.347656 17.460938 18 C 19.515625 17.347656 21.445312 16.328125 23.167969 14.988281 C 23.636719 9.867188 22.367188 5.4375 19.816406 1.507812 Z M 8.261719 12.269531 C 7.148438 12.269531 6.230469 11.210938 6.230469 9.898438 C 6.230469 8.59375 7.113281 7.519531 8.253906 7.519531 C 9.394531 7.519531 10.300781 8.59375 10.28125 9.898438 C 10.269531 11.210938 9.390625 12.269531 8.261719 12.269531 Z M 15.738281 12.269531 C 14.628906 12.269531 13.71875 11.210938 13.71875 9.898438 C 13.71875 8.59375 14.601562 7.519531 15.738281 7.519531 C 16.878906 7.519531 17.78125 8.59375 17.769531 9.898438 C 17.742188 11.210938 16.875 12.269531 15.738281 12.269531 Z M 15.738281 12.269531 "/>
</g>
</svg>
